<svg version="1.1" xmlns="http://www.w3.org/2000/svg" viewBox="0 0 791.4067344961238 274.26538275193815">
  <!-- svg-source:excalidraw -->
  <defs>
    <style>
      @font-face {
        font-family: "Virgil";
        src: url("https://excalidraw.com/FG_Virgil.woff2");
      }
      @font-face {
        font-family: "Cascadia";
        src: url("https://excalidraw.com/Cascadia.woff2");
      }
    </style>
  </defs>
  <rect x="0" y="0" width="791.4067344961238" height="274.26538275193815" fill="#fafafa"></rect><g transform="translate(33.466206395348934 229.26538275193815) rotate(0 20.5 17.5)"><text x="20.5" y="25" font-family="Virgil, Segoe UI Emoji" font-size="28px" fill="#000000" text-anchor="middle" style="white-space: pre;" direction="ltr">Tú</text></g><g transform="translate(213.00629844961253 225.47965116279073) rotate(0 40 17.5)"><text x="40" y="25" font-family="Virgil, Segoe UI Emoji" font-size="28px" fill="#364fc7" text-anchor="middle" style="white-space: pre;" direction="ltr">GBM+</text></g><g transform="translate(421.5794573643412 220.6104651162791) rotate(0 60 17.5)"><text x="60" y="25" font-family="Virgil, Segoe UI Emoji" font-size="28px" fill="#0b7285" text-anchor="middle" style="white-space: pre;" direction="ltr">Vanguard</text></g><g transform="translate(648.4067344961238 220.2561773255817) rotate(0 66.5 17.5)"><text x="66.5" y="25" font-family="Virgil, Segoe UI Emoji" font-size="28px" fill="#2b8a3e" text-anchor="middle" style="white-space: pre;" direction="ltr">S&amp;P 500</text></g><g transform="translate(10 118.85416666666669) rotate(0 47.5 17.5)"><text x="47.5" y="25" font-family="Virgil, Segoe UI Emoji" font-size="28px" fill="#000000" text-anchor="middle" style="white-space: pre;" direction="ltr">Cliente</text></g><g transform="translate(206.45821220930208 119.62027616279079) rotate(0 46 17.5)"><text x="46" y="25" font-family="Virgil, Segoe UI Emoji" font-size="28px" fill="#364fc7" text-anchor="middle" style="white-space: pre;" direction="ltr">Broker</text></g><g transform="translate(377.8177083333333 101.8120155038759) rotate(0 109.5 35)"><text x="109.5" y="25" font-family="Virgil, Segoe UI Emoji" font-size="28px" fill="#0b7285" text-anchor="middle" style="white-space: pre;" direction="ltr">Compañía que </text><text x="109.5" y="60" font-family="Virgil, Segoe UI Emoji" font-size="28px" fill="#0b7285" text-anchor="middle" style="white-space: pre;" direction="ltr">maneja el fondo</text></g><g transform="translate(664.9341085271321 119.26598837209303) rotate(0 41.5 17.5)"><text x="41.5" y="25" font-family="Virgil, Segoe UI Emoji" font-size="28px" fill="#2b8a3e" text-anchor="middle" style="white-space: pre;" direction="ltr">Índice</text></g><g transform="translate(10.414849806201516 10) rotate(0 47.5 17.5)"><text x="47.5" y="25" font-family="Virgil, Segoe UI Emoji" font-size="28px" fill="#000000" text-anchor="middle" style="white-space: pre;" direction="ltr">Cliente</text></g><g transform="translate(172.16315406976736 10.221051356589044) rotate(0 86 17.5)"><text x="86" y="25" font-family="Virgil, Segoe UI Emoji" font-size="28px" fill="#364fc7" text-anchor="middle" style="white-space: pre;" direction="ltr">Restaurante</text></g><g transform="translate(450.69949127906983 14.98728197674427) rotate(0 32.5 17.5)"><text x="32.5" y="25" font-family="Virgil, Segoe UI Emoji" font-size="28px" fill="#0b7285" text-anchor="middle" style="white-space: pre;" direction="ltr">Chef</text></g><g transform="translate(655.4117005813957 11.995518410852753) rotate(0 48.5 17.5)"><text x="48.5" y="25" font-family="Virgil, Segoe UI Emoji" font-size="28px" fill="#2b8a3e" text-anchor="middle" style="white-space: pre;" direction="ltr">Receta</text></g><g><g transform="translate(120.15310077519376 29.553052325581405) rotate(0 18.776805251452714 -0.43758062366576667)"><path d="M-0.425698747113347 -0.10422190837562084 C6.053762307386732 0.17548440571499668, 31.639682408775567 0.5852767092919748, 37.97930925001881 0.5276749026550533 M1.5516706813126802 -1.2045423556119204 C7.908260761272048 -1.179648096155397, 30.354063107724663 -1.6040043187701305, 36.77100070660493 -1.2940242286251307" stroke="#000000" stroke-width="1" fill="none"></path></g></g><g><g transform="translate(373.8689437984495 29.93610707364337) rotate(0 19.15717575072091 -0.36546781842776)"><path d="M0.7370910745114088 0.123257740214467 C7.113802495222426 0.17539142246914705, 32.2683108534472 0.7089294535851878, 38.64942634215138 0.5498292338623287 M-0.33507484070956717 -0.8576358915120363 C5.864822047721481 -1.1797898956053177, 31.312721485848904 -1.4154338837229807, 37.7929292721071 -1.2602388735340355" stroke="#364fc7" stroke-width="1" fill="none"></path></g></g><g><g transform="translate(563.2917877906975 30.045118701550393) rotate(0 27.130549764820046 0.023449576138688144)"><path d="M0.5487355571240187 -0.7859220664948225 C9.666908664095107 -0.8480365175210031, 45.95324658596368 0.18514579077433005, 54.88341653436544 0.22256403933311053 M-0.622317004725337 1.4158649032562973 C8.28372046782345 0.9845412532783957, 44.19930604079219 -1.2789101826660787, 53.70223339066031 -1.3689657509789412" stroke="#0b7285" stroke-width="1" fill="none"></path></g></g><g><g transform="translate(134.73982558139534 136.31328730620152) rotate(0 19.362773114058797 0.044037247491360176)"><path d="M-0.8401270408183337 -0.9723873417824507 C5.631258681040144 -1.2970629704408565, 32.946804865803 -0.9066001193785268, 39.565673268935896 -0.8947679507957218 M0.9196675334125759 1.1315053584426642 C7.263942731093501 1.4547171552069267, 32.9574248546915 0.3908835175073546, 39.19020583545348 0.19675041986243746" stroke="#000000" stroke-width="1" fill="none"></path></g></g><g><g transform="translate(317.94295058139534 137.86973110465112) rotate(0 20.020830371740885 -0.2817583958140375)"><path d="M1.020214043185115 1.152078588679433 C7.121258654814101 1.2916710722036442, 31.55569102426934 0.6371552092767159, 37.66060259451649 0.23870715019838817 M0.09668768651783477 0.7113159023970366 C6.486192691098785 0.5225365702397903, 33.27597624635267 -1.5248896062933999, 39.944973056963896 -1.7347000511215447" stroke="#364fc7" stroke-width="1" fill="none"></path></g></g><g><g transform="translate(608.6194282945737 138.84175145348837) rotate(0 19.369097403052876 -0.012830467414119084)"><path d="M-0.5064268033951521 0.671773312613368 C5.910887134443855 0.6480112801082214, 32.825553292389394 0.958699632231037, 39.24462160950086 0.8205794606878045 M1.4285603954829278 -0.02114964360371241 C7.690376122534161 -0.4590446127057295, 32.772516205235746 -1.0345343612880609, 38.70060205481506 -0.8473447776251852" stroke="#0b7285" stroke-width="1" fill="none"></path></g></g><g><g transform="translate(119.69076353799852 239.387937017897) rotate(0 27.101466915165986 -0.05672402294248968)"><path d="M-0.3919641751796007 1.0972999054938553 C8.58706014931387 1.0612007329057669, 45.244294320056156 0.7347894460911638, 54.59489800551154 0.8060232660567863 M1.6031159035116436 0.6277784105390309 C10.340380217285814 0.7242018066536403, 44.55529750780197 -1.0503348759358044, 53.52281504118063 -1.2107479513788122" stroke="#000000" stroke-width="1" fill="none"></path></g></g><g><g transform="translate(326.20893554806906 237.27127592173917) rotate(0 27.6067747780736 0.36044140078382725)"><path d="M-0.7312560718506574 0.7381556969135998 C8.65421282604522 0.5880592318068958, 46.55750910864206 -0.2741507238690966, 55.944805627997894 -0.20313169520138663 M1.085695761088282 0.08008349245414137 C10.44278804930112 0.0026610174778616963, 46.55795006039546 1.0710313648747987, 55.58142416547231 0.9102907327024741" stroke="#364fc7" stroke-width="1" fill="none"></path></g></g><g><g transform="translate(565.3622785713249 236.39918289848345) rotate(0 27.133848640859128 0.917884468838821)"><path d="M0.5631422001868487 1.037145219370723 C9.754812651427452 1.2422302575599171, 45.71440204010339 0.504543846195448, 54.8680441557727 0.24384252269030637 M-0.6003468740545213 0.5360425142012537 C8.461202783009025 1.0002718317512191, 44.662211780874 1.6485405842232295, 53.939362920328904 1.5919264149873062" stroke="#0b7285" stroke-width="1" fill="none"></path></g></g></svg>