<svg version="1.1" xmlns="http://www.w3.org/2000/svg" viewBox="0 0 1008.3254616477269 172.31143465909093" width="3024.9763849431806" height="516.9343039772727">
  <!-- svg-source:excalidraw -->
  
  <defs>
    <style>
      @font-face {
        font-family: "Virgil";
        src: url("https://excalidraw.com/FG_Virgil.woff2");
      }
      @font-face {
        font-family: "Cascadia";
        src: url("https://excalidraw.com/Cascadia.woff2");
      }
    </style>
  </defs>
  <g transform="translate(379.077869109291 10) rotate(0 125.00000000000006 41.99999999999997)"><text x="125" y="34" font-family="Cascadia, Segoe UI Emoji" font-size="35.51953125000008px" fill="#000000" text-anchor="middle" style="white-space: pre;" direction="ltr">1º de julio </text><text x="125" y="76" font-family="Cascadia, Segoe UI Emoji" font-size="35.51953125000008px" fill="#000000" text-anchor="middle" style="white-space: pre;" direction="ltr">de 1997</text></g><g><g transform="translate(359.49814609792713 55.72581998406747) rotate(0 -57.263051759655696 -2.1758042295153075)"><path d="M-3.5612838976085186 -2.735021460801363 C-21.84640082831728 -5.607959261561217, -48.09864561174115 -2.523731251171678, -111.85896579962059 -4.937052635600196 M-1.7556589785963297 0.585444176569581 C-26.527880650734396 -2.6569459256562786, -52.004376921764496 -3.7899154989653914, -112.77044454071506 -2.92736400676273" stroke="#000000" stroke-width="2" fill="none"></path></g><g transform="translate(359.49814609792713 55.72581998406747) rotate(0 -57.263051759655696 -2.1758042295153075)"><path d="M-88.19349709964874 -16.066227889055156 C-88.7192744947169 -14.386872009090348, -97.15283107872813 -8.241835503941111, -110.40696654695853 -3.4811273851742612 M-86.38787218063655 -12.745762251684214 C-91.23421022813197 -12.73632289310155, -96.7220369514496 -10.435735020099909, -111.318445288053 -1.471438756336795" stroke="#000000" stroke-width="2" fill="none"></path></g><g transform="translate(359.49814609792713 55.72581998406747) rotate(0 -57.263051759655696 -2.1758042295153075)"><path d="M-88.08913168046978 4.454715321360856 C-88.5541503011643 1.8846050370928182, -97.00930962521487 3.7819836012849253, -110.40696654695853 -3.4811273851742612 M-86.28350676145759 7.7751809587318 C-91.06694676220664 3.0198977877469524, -96.57900703331069 0.5555428106734919, -111.318445288053 -1.471438756336795" stroke="#000000" stroke-width="2" fill="none"></path></g></g><g transform="translate(253.59268465909065 88.31143465909093) rotate(0 52.5 24)"><text x="52.5" y="19" font-family="Cascadia, Segoe UI Emoji" font-size="20px" fill="#000000" text-anchor="middle" style="white-space: pre;" direction="ltr">Cotizaste</text><text x="52.5" y="43" font-family="Cascadia, Segoe UI Emoji" font-size="20px" fill="#000000" text-anchor="middle" style="white-space: pre;" direction="ltr">antes</text></g><g><g transform="translate(754.665687621546 53.553613188866166) rotate(179.58498807145136 -52.394367462777495 0.4399036644026637)"><path d="M2.0662261731922626 2.8036061637103558 C-35.65661057881261 0.23040276726698705, -65.7623548272341 2.939815001365906, -106.85496109874714 -0.5746757382526084 M-1.0453051272779703 -1.9237988349050283 C-23.565022759413907 -0.40984831635694197, -45.858323465661215 1.2232164118689313, -104.85144273901153 -0.7399329407139703" stroke="#000000" stroke-width="2" fill="none"></path></g><g transform="translate(754.665687621546 53.553613188866166) rotate(179.58498807145136 -52.394367462777495 0.4399036644026637)"><path d="M-74.39215544435083 -7.623126049857218 C-88.43526023721004 -8.261610248214156, -94.9146704125117 -2.7095382195148696, -107.99985897132922 -1.939883147738783 M-77.50368674482107 -12.350531048472602 C-82.83570705057839 -8.219010351034083, -87.8002097988783 -4.500989188544718, -105.99634061159361 -2.105140350200145" stroke="#000000" stroke-width="2" fill="none"></path></g><g transform="translate(754.665687621546 53.553613188866166) rotate(179.58498807145136 -52.394367462777495 0.4399036644026637)"><path d="M-74.80831532047 12.893862358370432 C-88.84177083892509 5.814047250450565, -95.19062893016279 4.929805378857775, -107.99985897132922 -1.939883147738783 M-77.91984662094023 8.166457359755048 C-82.83663490835198 7.580189466176288, -87.70538388119391 6.577478972755322, -105.99634061159361 -2.105140350200145" stroke="#000000" stroke-width="2" fill="none"></path></g></g><g transform="translate(10 29.124023437500057) rotate(0 103.5 21)"><text x="103.5" y="34" font-family="Cascadia, Segoe UI Emoji" font-size="35.25084600601608px" fill="#2b8a3e" text-anchor="middle" style="white-space: pre;" direction="ltr">Régimen 73</text></g><g transform="translate(791.3254616477269 32.68909801136374) rotate(0 103.5 20.99999999999997)"><text x="103.5" y="34" font-family="Cascadia, Segoe UI Emoji" font-size="35.25084600601608px" fill="#2b8a3e" text-anchor="middle" style="white-space: pre;" direction="ltr">Régimen 97</text></g><g transform="translate(645.5791903409089 86.91122159090929) rotate(0 52.5 24)"><text x="52.5" y="19" font-family="Cascadia, Segoe UI Emoji" font-size="20px" fill="#000000" text-anchor="middle" style="white-space: pre;" direction="ltr">Cotizaste</text><text x="52.5" y="43" font-family="Cascadia, Segoe UI Emoji" font-size="20px" fill="#000000" text-anchor="middle" style="white-space: pre;" direction="ltr">después</text></g><g transform="translate(830.3254616477269 152.31143465909093) rotate(0 84 10)"><text x="168" y="14" font-family="Virgil, Segoe UI Emoji" font-size="16px" fill="#adb5bd" text-anchor="end" style="white-space: pre;" direction="ltr">Made with Excalidraw</text></g></svg>